<svg width="80" height="80" viewBox="0 0 80 80" fill="none" xmlns="http://www.w3.org/2000/svg">
<path fill-rule="evenodd" clip-rule="evenodd" d="M34.6256 42C36.5959 44.3337 38.5177 46.2647 40 47.5C41.4823 46.2647 43.404 44.3337 45.3744 42H58.9902C59.3868 42 59.7459 42.2344 59.9055 42.5974L60.9873 45.0569L39.2713 54.9278L26.5129 42H34.6256ZM12.6169 59.5974L20.0892 42.609L38.2392 61H13.5322C12.8102 61 12.3262 60.2583 12.6169 59.5974ZM66.4676 61H45.264L43.0131 58.7193L63.0006 49.634L67.383 59.5974C67.6737 60.2583 67.1896 61 66.4676 61Z" fill="#E9E9E9"/>
<path fill-rule="evenodd" clip-rule="evenodd" d="M31.1612 37.5H18.1439C17.7518 37.5 17.3959 37.7292 17.2336 38.0862L5.64267 63.5862C5.34172 64.2483 5.82575 65 6.55304 65H73.447C74.1743 65 74.6583 64.2483 74.3574 63.5862L62.7665 38.0862C62.6042 37.7292 62.2483 37.5 61.8561 37.5H48.8388C48.3618 38.1828 47.8731 38.8511 47.3792 39.5H61.2122L71.894 63H8.10604L18.7879 39.5H32.6208C32.1268 38.8511 31.6382 38.1828 31.1612 37.5Z" fill="#424242"/>
<path d="M35.8009 46.9491C36.8888 45.8612 38.3643 45.25 39.9028 45.25H40.0972C41.6357 45.25 43.1112 45.8612 44.1991 46.9491C45.4172 48.1672 44.5545 50.25 42.8318 50.25H37.1682C35.4455 50.25 34.5828 48.1672 35.8009 46.9491Z" fill="#C6C6C6"/>
<path fill-rule="evenodd" clip-rule="evenodd" d="M32.2833 35.6008C34.8079 39.3456 37.7414 42.6833 40 44.8198C42.2586 42.6833 45.1921 39.3456 47.7167 35.6008C50.7991 31.0285 53 26.2447 53 22.5C53 17.5629 50.845 14.3838 48.175 12.3812C45.42 10.315 42.098 9.5 40 9.5C37.902 9.5 34.58 10.315 31.825 12.3812C29.155 14.3838 27 17.5629 27 22.5C27 26.2447 29.2009 31.0285 32.2833 35.6008ZM25 22.5C25 31.25 35 43.3333 40 47.5C45 43.3333 55 31.25 55 22.5C55 11.25 45 7.5 40 7.5C35 7.5 25 11.25 25 22.5ZM45.5 22.5C45.5 25.5376 43.0376 28 40 28C36.9624 28 34.5 25.5376 34.5 22.5C34.5 19.4624 36.9624 17 40 17C43.0376 17 45.5 19.4624 45.5 22.5ZM47.5 22.5C47.5 26.6421 44.1421 30 40 30C35.8579 30 32.5 26.6421 32.5 22.5C32.5 18.3579 35.8579 15 40 15C44.1421 15 47.5 18.3579 47.5 22.5Z" fill="#424242"/>
</svg>
